<svg xmlns="http://www.w3.org/2000/svg" xmlns:xlink="http://www.w3.org/1999/xlink" zoomAndPan="magnify" preserveAspectRatio="xMidYMid meet" version="1.0" viewBox="0 38.49 370.26 299.05"><defs><g/><clipPath id="8e16a3b7a0"><path d="M 0 313 L 25 313 L 25 337.546875 L 0 337.546875 Z M 0 313 " clip-rule="nonzero"/></clipPath><clipPath id="d85aa793e4"><path d="M 187.5 38.492188 L 299.253906 38.492188 L 299.253906 150.242188 L 187.5 150.242188 Z M 187.5 38.492188 " clip-rule="nonzero"/></clipPath><clipPath id="d806b9ec93"><path d="M 243.375 38.492188 C 212.515625 38.492188 187.5 63.507812 187.5 94.367188 C 187.5 125.226562 212.515625 150.242188 243.375 150.242188 C 274.234375 150.242188 299.253906 125.226562 299.253906 94.367188 C 299.253906 63.507812 274.234375 38.492188 243.375 38.492188 Z M 243.375 38.492188 " clip-rule="nonzero"/></clipPath><clipPath id="acd16359a2"><path d="M 275.554688 96.113281 L 358.101562 96.113281 L 358.101562 178.660156 L 275.554688 178.660156 Z M 275.554688 96.113281 " clip-rule="nonzero"/></clipPath><clipPath id="09b5db612d"><path d="M 316.828125 96.113281 C 294.035156 96.113281 275.554688 114.59375 275.554688 137.386719 C 275.554688 160.183594 294.035156 178.660156 316.828125 178.660156 C 339.625 178.660156 358.101562 160.183594 358.101562 137.386719 C 358.101562 114.59375 339.625 96.113281 316.828125 96.113281 Z M 316.828125 96.113281 " clip-rule="nonzero"/></clipPath><clipPath id="80b3ea141d"><path d="M 198.152344 49.144531 L 288.601562 49.144531 L 288.601562 139.589844 L 198.152344 139.589844 Z M 198.152344 49.144531 " clip-rule="nonzero"/></clipPath><clipPath id="7c0c6672a7"><path d="M 243.375 49.144531 C 218.398438 49.144531 198.152344 69.390625 198.152344 94.367188 C 198.152344 119.34375 218.398438 139.589844 243.375 139.589844 C 268.351562 139.589844 288.601562 119.34375 288.601562 94.367188 C 288.601562 69.390625 268.351562 49.144531 243.375 49.144531 Z M 243.375 49.144531 " clip-rule="nonzero"/></clipPath><clipPath id="c9897831a9"><path d="M 283.421875 103.980469 L 350.234375 103.980469 L 350.234375 170.792969 L 283.421875 170.792969 Z M 283.421875 103.980469 " clip-rule="nonzero"/></clipPath><clipPath id="5c78490ff1"><path d="M 316.828125 103.980469 C 298.378906 103.980469 283.421875 118.9375 283.421875 137.386719 C 283.421875 155.835938 298.378906 170.792969 316.828125 170.792969 C 335.277344 170.792969 350.234375 155.835938 350.234375 137.386719 C 350.234375 118.9375 335.277344 103.980469 316.828125 103.980469 Z M 316.828125 103.980469 " clip-rule="nonzero"/></clipPath></defs><path fill="#5635d7" d="M 71.144531 305.320312 C 71.144531 316.402344 63.351562 321.566406 53.746094 321.566406 C 44.136719 321.566406 36.34375 316.402344 36.34375 305.320312 C 36.34375 294.238281 44.136719 285.253906 53.746094 285.253906 C 63.351562 285.253906 71.144531 294.238281 71.144531 305.320312 Z M 71.144531 305.320312 " fill-opacity="1" fill-rule="nonzero"/><g clip-path="url(#8e16a3b7a0)"><path fill="#5635d7" d="M 24.996094 323.078125 C 24.996094 330.304688 18.402344 337.453125 12.136719 337.453125 C 5.871094 337.453125 0.789062 334.085938 0.789062 326.859375 C 0.789062 319.636719 5.871094 313.773438 12.136719 313.773438 C 18.402344 313.773438 24.996094 315.847656 24.996094 323.078125 Z M 24.996094 323.078125 " fill-opacity="1" fill-rule="nonzero"/></g><path fill="#5635d7" d="M 300.609375 133.949219 C 294.210938 133.945312 287.925781 134.804688 281.765625 136.53125 C 279 131 275.316406 126.175781 270.714844 122.050781 C 269.636719 120.84375 268.5 119.691406 267.304688 118.601562 C 266.109375 117.507812 264.863281 116.476562 263.566406 115.511719 C 262.269531 114.542969 260.925781 113.644531 259.539062 112.808594 C 258.148438 111.976562 256.722656 111.214844 255.257812 110.523438 C 253.796875 109.835938 252.300781 109.21875 250.773438 108.679688 C 249.246094 108.140625 247.699219 107.675781 246.125 107.292969 C 244.554688 106.90625 242.96875 106.601562 241.363281 106.375 C 239.761719 106.148438 238.152344 106.003906 236.535156 105.941406 C 234.917969 105.875 233.300781 105.894531 231.683594 105.992188 C 230.066406 106.089844 228.460938 106.265625 226.863281 106.523438 C 225.265625 106.785156 223.683594 107.121094 222.121094 107.539062 C 220.554688 107.957031 219.015625 108.449219 217.503906 109.023438 C 215.988281 109.59375 214.507812 110.238281 213.054688 110.957031 C 211.605469 111.679688 210.195312 112.46875 208.824219 113.332031 C 207.457031 114.191406 206.132812 115.121094 204.855469 116.113281 C 203.578125 117.109375 202.351562 118.164062 201.179688 119.28125 C 200.671875 117.894531 200.050781 116.566406 199.316406 115.285156 C 198.582031 114.007812 197.746094 112.796875 196.808594 111.660156 C 195.867188 110.523438 194.839844 109.472656 193.726562 108.507812 C 192.609375 107.542969 191.421875 106.679688 190.15625 105.917969 C 188.894531 105.152344 187.578125 104.503906 186.207031 103.960938 C 184.835938 103.421875 183.425781 103 181.984375 102.699219 C 180.539062 102.394531 179.082031 102.214844 177.605469 102.160156 C 176.132812 102.105469 174.664062 102.171875 173.203125 102.367188 C 171.742188 102.558594 170.304688 102.871094 168.894531 103.308594 C 167.488281 103.742188 166.125 104.292969 164.808594 104.957031 C 163.492188 105.625 162.242188 106.394531 161.054688 107.273438 C 159.871094 108.148438 158.765625 109.117188 157.746094 110.183594 C 156.722656 111.246094 155.796875 112.386719 154.96875 113.609375 C 154.140625 114.828125 153.421875 116.109375 152.808594 117.449219 C 152.195312 118.792969 151.703125 120.175781 151.324219 121.601562 C 150.945312 123.027344 150.691406 124.472656 150.554688 125.941406 C 149.453125 125.214844 148.320312 124.535156 147.160156 123.902344 C 146 123.269531 144.8125 122.683594 143.605469 122.148438 C 142.398438 121.609375 141.167969 121.125 139.921875 120.6875 C 138.671875 120.25 137.410156 119.867188 136.128906 119.535156 C 134.851562 119.203125 133.558594 118.921875 132.257812 118.695312 C 130.953125 118.46875 129.644531 118.292969 128.328125 118.175781 C 127.011719 118.054688 125.691406 117.988281 124.371094 117.976562 C 123.046875 117.964844 121.726562 118.007812 120.410156 118.105469 C 119.089844 118.199219 117.777344 118.351562 116.472656 118.554688 C 115.167969 118.757812 113.871094 119.015625 112.585938 119.324219 C 111.300781 119.632812 110.03125 119.996094 108.773438 120.410156 C 107.519531 120.824219 106.28125 121.289062 105.0625 121.804688 C 103.847656 122.316406 102.652344 122.882812 101.480469 123.496094 C 100.308594 124.109375 99.164062 124.769531 98.046875 125.472656 C 96.929688 126.179688 95.84375 126.933594 94.789062 127.726562 C 93.730469 128.523438 92.710938 129.359375 91.722656 130.238281 C 90.625 129.875 89.519531 129.542969 88.40625 129.234375 C 87.289062 128.929688 86.167969 128.65625 85.039062 128.410156 C 83.910156 128.164062 82.777344 127.945312 81.636719 127.761719 C 80.496094 127.574219 79.351562 127.417969 78.203125 127.289062 C 77.054688 127.164062 75.902344 127.070312 74.75 127.003906 C 73.59375 126.9375 72.441406 126.902344 71.285156 126.898438 C 70.128906 126.890625 68.976562 126.917969 67.820312 126.972656 C 66.667969 127.027344 65.515625 127.113281 64.363281 127.230469 C 63.214844 127.347656 62.070312 127.496094 60.925781 127.671875 C 59.785156 127.847656 58.648438 128.054688 57.519531 128.289062 C 56.386719 128.527344 55.261719 128.792969 54.144531 129.089844 C 53.027344 129.382812 51.917969 129.710938 50.820312 130.0625 C 49.71875 130.417969 48.628906 130.800781 47.550781 131.210938 C 46.46875 131.621094 45.402344 132.0625 44.34375 132.53125 C 43.289062 132.996094 42.246094 133.492188 41.214844 134.015625 C 40.183594 134.535156 39.167969 135.085938 38.164062 135.664062 C 37.164062 136.238281 36.175781 136.839844 35.207031 137.46875 C 34.238281 138.09375 33.285156 138.75 32.347656 139.425781 C 31.414062 140.105469 30.496094 140.804688 29.597656 141.53125 C 28.699219 142.257812 27.820312 143.007812 26.960938 143.78125 C 26.101562 144.554688 25.261719 145.347656 24.445312 146.164062 C 23.625 146.980469 22.832031 147.820312 22.058594 148.675781 C 21.285156 149.535156 20.53125 150.414062 19.804688 151.3125 C 19.078125 152.210938 18.375 153.125 17.695312 154.0625 C 17.015625 154.996094 16.363281 155.949219 15.734375 156.917969 C 15.105469 157.886719 14.503906 158.871094 13.925781 159.871094 C 13.347656 160.875 12.796875 161.890625 12.273438 162.917969 C 11.75 163.949219 11.253906 164.992188 10.785156 166.050781 C 10.316406 167.105469 9.875 168.171875 9.460938 169.253906 C 9.050781 170.332031 8.664062 171.421875 8.308594 172.519531 C 7.957031 173.621094 7.628906 174.726562 7.332031 175.84375 C 7.035156 176.960938 6.765625 178.085938 6.53125 179.214844 C 6.292969 180.347656 6.082031 181.484375 5.90625 182.625 C 5.726562 183.765625 5.578125 184.914062 5.460938 186.0625 C 5.34375 187.210938 5.257812 188.363281 5.199219 189.515625 C 5.140625 190.671875 5.113281 191.828125 5.117188 192.980469 C 5.121094 194.136719 5.15625 195.292969 5.21875 196.445312 C 5.285156 197.597656 5.378906 198.75 5.503906 199.898438 C 5.628906 201.046875 5.785156 202.191406 5.96875 203.332031 C 6.152344 204.472656 6.367188 205.609375 6.613281 206.738281 C 6.859375 207.867188 7.132812 208.988281 7.4375 210.105469 C 7.742188 211.21875 8.074219 212.324219 8.4375 213.421875 C 8.796875 214.519531 9.1875 215.609375 9.609375 216.683594 C 10.027344 217.761719 10.472656 218.828125 10.949219 219.878906 C 11.425781 220.933594 11.929688 221.972656 12.457031 223 C 12.988281 224.027344 13.542969 225.039062 14.128906 226.035156 C 14.710938 227.035156 15.320312 228.015625 15.957031 228.980469 C 16.589844 229.945312 17.25 230.894531 17.933594 231.824219 C 18.621094 232.753906 19.328125 233.667969 20.0625 234.5625 C 20.792969 235.453125 21.550781 236.328125 22.328125 237.183594 C 23.105469 238.035156 23.90625 238.867188 24.730469 239.679688 C 25.554688 240.492188 26.398438 241.28125 27.261719 242.046875 C 28.125 242.816406 29.007812 243.558594 29.910156 244.28125 C 30.816406 245 31.738281 245.695312 32.675781 246.367188 C 33.617188 247.042969 34.574219 247.6875 35.546875 248.308594 C 36.519531 248.933594 37.511719 249.527344 38.515625 250.097656 C 39.523438 250.667969 40.542969 251.210938 41.574219 251.726562 C 42.609375 252.242188 43.65625 252.730469 44.714844 253.191406 C 45.773438 253.652344 46.847656 254.085938 47.929688 254.492188 C 49.011719 254.894531 50.101562 255.269531 51.203125 255.617188 C 52.308594 255.964844 53.417969 256.285156 54.535156 256.574219 C 55.65625 256.863281 56.78125 257.121094 57.914062 257.351562 C 59.046875 257.578125 60.183594 257.78125 61.328125 257.949219 C 62.46875 258.117188 63.617188 258.257812 64.765625 258.367188 C 65.417969 260.15625 66.183594 261.894531 67.066406 263.582031 C 67.949219 265.269531 68.9375 266.890625 70.03125 268.445312 C 71.128906 270.003906 72.320312 271.480469 73.613281 272.878906 C 74.90625 274.277344 76.28125 275.585938 77.746094 276.800781 C 79.210938 278.019531 80.75 279.132812 82.363281 280.144531 C 83.972656 281.160156 85.644531 282.0625 87.375 282.851562 C 89.105469 283.644531 90.882812 284.320312 92.703125 284.875 C 94.523438 285.433594 96.371094 285.867188 98.25 286.179688 C 100.128906 286.492188 102.019531 286.679688 103.921875 286.742188 C 105.824219 286.804688 107.722656 286.742188 109.617188 286.550781 C 111.511719 286.363281 113.382812 286.050781 115.238281 285.613281 C 117.089844 285.175781 118.90625 284.621094 120.683594 283.945312 C 122.464844 283.265625 124.191406 282.476562 125.867188 281.570312 C 127.539062 280.664062 129.148438 279.652344 130.6875 278.535156 C 132.230469 277.417969 133.691406 276.203125 135.070312 274.894531 C 136.449219 273.582031 137.738281 272.1875 138.933594 270.703125 C 139.414062 271.519531 139.917969 272.320312 140.445312 273.105469 C 140.96875 273.890625 141.515625 274.664062 142.082031 275.417969 C 142.652344 276.175781 143.238281 276.914062 143.847656 277.636719 C 144.457031 278.363281 145.085938 279.070312 145.730469 279.757812 C 146.378906 280.445312 147.046875 281.117188 147.730469 281.769531 C 148.414062 282.421875 149.117188 283.054688 149.835938 283.667969 C 150.554688 284.285156 151.292969 284.875 152.042969 285.449219 C 152.796875 286.023438 153.5625 286.574219 154.34375 287.105469 C 155.128906 287.636719 155.925781 288.144531 156.734375 288.632812 C 157.546875 289.121094 158.371094 289.585938 159.207031 290.027344 C 160.042969 290.46875 160.890625 290.886719 161.75 291.28125 C 162.609375 291.675781 163.476562 292.046875 164.355469 292.394531 C 165.238281 292.742188 166.125 293.0625 167.023438 293.363281 C 167.921875 293.660156 168.824219 293.933594 169.738281 294.179688 C 170.648438 294.429688 171.570312 294.652344 172.492188 294.851562 C 173.417969 295.046875 174.347656 295.21875 175.28125 295.367188 C 176.214844 295.511719 177.152344 295.632812 178.09375 295.726562 C 179.035156 295.820312 179.980469 295.890625 180.921875 295.933594 C 181.867188 295.976562 182.8125 295.992188 183.757812 295.984375 C 184.703125 295.972656 185.648438 295.9375 186.59375 295.875 C 187.535156 295.816406 188.476562 295.726562 189.417969 295.613281 C 190.355469 295.5 191.289062 295.363281 192.222656 295.195312 C 193.152344 295.03125 194.078125 294.84375 195 294.625 C 195.921875 294.410156 196.835938 294.167969 197.742188 293.902344 C 198.648438 293.636719 199.546875 293.34375 200.441406 293.03125 C 201.332031 292.714844 202.210938 292.375 203.085938 292.007812 C 203.957031 291.644531 204.820312 291.257812 205.671875 290.84375 C 206.523438 290.433594 207.363281 289.996094 208.1875 289.539062 C 209.015625 289.082031 209.832031 288.601562 210.632812 288.097656 C 211.433594 287.59375 212.21875 287.070312 212.988281 286.523438 C 213.761719 285.976562 214.519531 285.410156 215.257812 284.820312 C 216 284.234375 216.722656 283.625 217.429688 282.996094 C 218.785156 284.007812 220.183594 284.945312 221.628906 285.816406 C 223.074219 286.6875 224.5625 287.484375 226.085938 288.210938 C 227.609375 288.9375 229.167969 289.585938 230.753906 290.15625 C 232.34375 290.730469 233.957031 291.222656 235.59375 291.632812 C 237.230469 292.046875 238.882812 292.378906 240.550781 292.628906 C 242.222656 292.882812 243.898438 293.050781 245.585938 293.136719 C 247.269531 293.222656 248.957031 293.222656 250.644531 293.144531 C 252.328125 293.0625 254.007812 292.902344 255.679688 292.65625 C 257.347656 292.410156 259.003906 292.085938 260.640625 291.675781 C 262.277344 291.269531 263.894531 290.78125 265.484375 290.214844 C 267.074219 289.648438 268.632812 289.007812 270.160156 288.289062 C 271.6875 287.566406 273.175781 286.773438 274.625 285.910156 C 276.074219 285.042969 277.476562 284.105469 278.832031 283.101562 C 280.191406 282.097656 281.496094 281.03125 282.746094 279.898438 C 284 278.765625 285.191406 277.574219 286.328125 276.324219 C 287.460938 275.074219 288.53125 273.773438 289.539062 272.417969 C 290.722656 272.609375 291.910156 272.765625 293.101562 272.894531 C 294.292969 273.023438 295.484375 273.121094 296.679688 273.191406 C 297.878906 273.257812 299.074219 273.292969 300.273438 273.296875 C 301.46875 273.304688 302.667969 273.277344 303.863281 273.222656 C 305.058594 273.164062 306.253906 273.078125 307.445312 272.960938 C 308.640625 272.84375 309.828125 272.691406 311.011719 272.515625 C 312.195312 272.335938 313.375 272.125 314.546875 271.886719 C 315.722656 271.644531 316.890625 271.375 318.046875 271.074219 C 319.207031 270.773438 320.359375 270.445312 321.503906 270.085938 C 322.644531 269.722656 323.777344 269.335938 324.898438 268.917969 C 326.023438 268.5 327.132812 268.050781 328.234375 267.578125 C 329.332031 267.101562 330.417969 266.597656 331.492188 266.066406 C 332.566406 265.535156 333.625 264.976562 334.671875 264.390625 C 335.714844 263.804688 336.746094 263.191406 337.757812 262.550781 C 338.769531 261.914062 339.765625 261.25 340.746094 260.558594 C 341.722656 259.867188 342.683594 259.152344 343.625 258.414062 C 344.570312 257.671875 345.492188 256.910156 346.394531 256.121094 C 347.296875 255.332031 348.179688 254.523438 349.039062 253.691406 C 349.898438 252.855469 350.738281 252 351.554688 251.125 C 352.371094 250.25 353.164062 249.351562 353.9375 248.433594 C 354.707031 247.515625 355.453125 246.582031 356.175781 245.625 C 356.898438 244.667969 357.59375 243.695312 358.265625 242.703125 C 358.9375 241.710938 359.582031 240.703125 360.203125 239.679688 C 360.824219 238.652344 361.417969 237.613281 361.984375 236.558594 C 362.546875 235.5 363.085938 234.433594 363.597656 233.347656 C 364.109375 232.265625 364.59375 231.167969 365.046875 230.0625 C 365.5 228.953125 365.925781 227.832031 366.324219 226.703125 C 366.71875 225.574219 367.089844 224.433594 367.425781 223.285156 C 367.765625 222.132812 368.074219 220.976562 368.351562 219.8125 C 368.628906 218.648438 368.878906 217.476562 369.09375 216.296875 C 369.3125 215.121094 369.5 213.9375 369.65625 212.75 C 369.8125 211.5625 369.941406 210.371094 370.035156 209.175781 C 370.132812 207.980469 370.195312 206.785156 370.230469 205.589844 C 370.261719 204.390625 370.265625 203.195312 370.238281 201.996094 C 370.210938 200.796875 370.152344 199.601562 370.0625 198.40625 C 369.972656 197.214844 369.851562 196.023438 369.699219 194.832031 C 369.550781 193.644531 369.367188 192.460938 369.15625 191.28125 C 368.945312 190.105469 368.699219 188.929688 368.429688 187.765625 C 368.15625 186.597656 367.851562 185.4375 367.519531 184.289062 C 367.1875 183.136719 366.828125 181.996094 366.433594 180.863281 C 366.042969 179.730469 365.625 178.609375 365.175781 177.5 C 364.726562 176.390625 364.246094 175.289062 363.742188 174.203125 C 363.234375 173.117188 362.703125 172.046875 362.140625 170.988281 C 361.582031 169.929688 360.992188 168.886719 360.378906 167.859375 C 359.761719 166.832031 359.121094 165.820312 358.453125 164.824219 C 357.789062 163.828125 357.09375 162.851562 356.378906 161.890625 C 355.660156 160.933594 354.917969 159.992188 354.152344 159.070312 C 353.386719 158.152344 352.597656 157.25 351.785156 156.371094 C 350.972656 155.488281 350.136719 154.628906 349.28125 153.792969 C 348.425781 152.957031 347.546875 152.140625 346.648438 151.347656 C 345.75 150.558594 344.832031 149.789062 343.890625 149.042969 C 342.953125 148.300781 341.996094 147.578125 341.019531 146.882812 C 340.046875 146.191406 339.054688 145.519531 338.042969 144.875 C 337.03125 144.230469 336.007812 143.613281 334.964844 143.023438 C 333.921875 142.433594 332.867188 141.867188 331.796875 141.332031 C 330.722656 140.792969 329.640625 140.285156 328.542969 139.804688 C 327.445312 139.324219 326.335938 138.871094 325.214844 138.449219 C 324.097656 138.023438 322.964844 137.628906 321.824219 137.265625 C 320.683594 136.898438 319.535156 136.566406 318.375 136.257812 C 317.21875 135.953125 316.050781 135.675781 314.878906 135.429688 C 313.707031 135.183594 312.527344 134.96875 311.34375 134.785156 C 310.160156 134.601562 308.972656 134.445312 307.78125 134.320312 C 306.589844 134.199219 305.398438 134.105469 304.199219 134.042969 C 303.003906 133.980469 301.808594 133.949219 300.609375 133.949219 Z M 300.609375 133.949219 " fill-opacity="1" fill-rule="nonzero"/><g clip-path="url(#d85aa793e4)"><g clip-path="url(#d806b9ec93)"><path fill="#5635d7" d="M 187.5 38.492188 L 299.253906 38.492188 L 299.253906 150.242188 L 187.5 150.242188 Z M 187.5 38.492188 " fill-opacity="1" fill-rule="nonzero"/></g></g><g clip-path="url(#acd16359a2)"><g clip-path="url(#09b5db612d)"><path fill="#5635d7" d="M 275.554688 96.113281 L 358.101562 96.113281 L 358.101562 178.660156 L 275.554688 178.660156 Z M 275.554688 96.113281 " fill-opacity="1" fill-rule="nonzero"/></g></g><g clip-path="url(#80b3ea141d)"><g clip-path="url(#7c0c6672a7)"><path fill="#fab818" d="M 198.152344 49.144531 L 288.601562 49.144531 L 288.601562 139.589844 L 198.152344 139.589844 Z M 198.152344 49.144531 " fill-opacity="1" fill-rule="nonzero"/></g></g><g clip-path="url(#c9897831a9)"><g clip-path="url(#5c78490ff1)"><path fill="#e83b80" d="M 283.421875 103.980469 L 350.234375 103.980469 L 350.234375 170.792969 L 283.421875 170.792969 Z M 283.421875 103.980469 " fill-opacity="1" fill-rule="nonzero"/></g></g><g fill="#ffffff" fill-opacity="1"><g transform="translate(50.107845, 230.023365)"><g><path d="M 39.421875 1.953125 C 62.3125 1.953125 76.78125 -13.140625 76.78125 -36.546875 C 76.78125 -60.671875 61.59375 -75.046875 39.421875 -75.046875 C 16.828125 -75.046875 1.953125 -60.359375 1.953125 -36.640625 C 1.953125 -12.734375 17.046875 1.953125 39.421875 1.953125 Z M 5.546875 -36.75 C 4.921875 -36.75 4.71875 -37.265625 4.71875 -38.390625 C 4.71875 -56.25 17.25 -72.265625 38.59375 -72.265625 C 41.46875 -72.265625 42.5 -71.75 42.5 -70.828125 C 42.5 -70.109375 41.265625 -69.59375 38.1875 -69.59375 C 17.25 -69.59375 7.390625 -52.96875 6.359375 -38.078125 C 6.265625 -37.15625 6.15625 -36.75 5.546875 -36.75 Z M 39.3125 -16.015625 C 29.671875 -16.015625 22.796875 -23.71875 22.796875 -36.546875 C 22.796875 -48.765625 29.15625 -57.078125 39.3125 -57.078125 C 50.296875 -57.078125 55.953125 -48.140625 55.953125 -36.03125 C 55.953125 -24.125 49.78125 -16.015625 39.3125 -16.015625 Z M 42.390625 -11.90625 C 41.265625 -11.90625 40.953125 -12.3125 40.953125 -12.828125 C 40.953125 -13.453125 41.265625 -13.65625 42.1875 -13.75 C 45.578125 -14.171875 49.171875 -15.5 52.453125 -18.578125 C 55.03125 -21.046875 56.875 -24.84375 57.6875 -27.515625 C 58 -28.53125 58.40625 -28.953125 58.828125 -28.953125 C 59.4375 -28.953125 60.15625 -28.53125 60.15625 -27.8125 C 60.15625 -27 59.84375 -26.171875 59.546875 -25.359375 C 57.078125 -18.6875 51.84375 -14.0625 43.53125 -12.015625 C 43.109375 -11.90625 42.703125 -11.90625 42.390625 -11.90625 Z M 42.390625 -11.90625 "/></g></g></g><g fill="#ffffff" fill-opacity="1"><g transform="translate(128.828398, 230.023365)"><g><path d="M 48.34375 23 C 53.59375 23 57.59375 18.375 57.59375 13.75 L 57.59375 -45.984375 C 57.59375 -50.71875 53.59375 -55.234375 48.34375 -55.234375 C 43.53125 -55.234375 41.265625 -52.453125 40.03125 -50.5 L 39.9375 -50.296875 L 39.734375 -50.296875 C 37.15625 -54.3125 32.234375 -56.5625 25.875 -56.5625 C 12.015625 -56.5625 1.328125 -43.109375 1.328125 -27.3125 C 1.328125 -11.09375 12.421875 1.953125 25.96875 1.953125 C 31.109375 1.953125 35.421875 0.828125 38.796875 -1.328125 L 39.015625 -1.328125 L 39.015625 13.75 C 39.015625 18.375 43.015625 23 48.34375 23 Z M 4.625 -25.96875 C 4 -25.96875 3.796875 -26.484375 3.796875 -27.609375 C 3.796875 -41.375 12.53125 -54.09375 26.078125 -54.09375 C 27.921875 -54.09375 28.328125 -53.796875 28.328125 -53.171875 C 28.328125 -52.453125 27.921875 -52.046875 26.6875 -51.9375 C 12.828125 -51.21875 6.78125 -39.3125 5.4375 -27.3125 C 5.34375 -26.375 5.234375 -25.96875 4.625 -25.96875 Z M 41.984375 -45.78125 C 41.46875 -45.78125 41.171875 -46.296875 41.171875 -46.90625 C 41.171875 -50.296875 44.765625 -53.484375 47.84375 -53.484375 C 48.859375 -53.484375 49.375 -52.96875 49.375 -52.5625 C 49.375 -52.25 49.171875 -51.9375 48.65625 -51.9375 C 45.484375 -51.640625 43.53125 -49.375 42.90625 -47.015625 C 42.703125 -46.296875 42.5 -45.78125 41.984375 -45.78125 Z M 29.359375 -16.21875 C 23.71875 -16.21875 19.703125 -20.84375 19.703125 -27.3125 C 19.703125 -33.875 23.609375 -38.390625 29.25 -38.390625 C 35.109375 -38.390625 38.90625 -33.78125 38.90625 -27.3125 C 38.90625 -20.84375 35 -16.21875 29.359375 -16.21875 Z M 31.828125 -13.03125 C 31.3125 -13.03125 31 -13.34375 31 -13.75 C 31 -13.96875 31.203125 -14.265625 31.71875 -14.375 C 35.3125 -15.09375 38.390625 -17.765625 39.421875 -20.015625 C 39.828125 -20.9375 40.140625 -21.453125 40.75 -21.453125 C 41.265625 -21.453125 41.578125 -21.140625 41.578125 -20.53125 C 41.578125 -17.453125 36.953125 -13.25 31.828125 -13.03125 Z M 31.828125 -13.03125 "/></g></g></g><g fill="#ffffff" fill-opacity="1"><g transform="translate(189.587936, 230.023365)"><g><path d="M 29.5625 1.953125 C 45.78125 1.953125 55.640625 -6.78125 55.640625 -19.703125 L 55.640625 -45.984375 C 55.640625 -50.71875 51.640625 -55.234375 46.296875 -55.234375 C 41.0625 -55.234375 36.953125 -50.71875 36.953125 -45.984375 L 36.953125 -22.375 C 36.953125 -18.375 33.359375 -15.40625 29.5625 -15.40625 C 25.671875 -15.40625 22.078125 -18.484375 22.078125 -22.375 L 22.078125 -45.984375 C 22.078125 -50.921875 18.0625 -55.234375 12.828125 -55.234375 C 7.5 -55.234375 3.484375 -50.921875 3.484375 -45.984375 L 3.484375 -19.8125 C 3.484375 -5.953125 13.75 1.953125 29.5625 1.953125 Z M 6.671875 -44.96875 C 6.15625 -44.96875 5.84375 -45.484375 5.84375 -46.09375 C 5.84375 -49.890625 9.4375 -52.875 13.140625 -52.875 C 13.75 -52.875 14.171875 -52.453125 14.171875 -52.046875 C 14.171875 -51.640625 13.859375 -51.328125 13.34375 -51.328125 C 10.15625 -51.328125 8.3125 -48.5625 7.59375 -46.203125 C 7.390625 -45.484375 7.1875 -44.96875 6.671875 -44.96875 Z M 40.234375 -44.859375 C 39.734375 -44.859375 39.421875 -45.375 39.421875 -45.984375 C 39.421875 -49.78125 43.015625 -52.765625 46.703125 -52.765625 C 47.328125 -52.765625 47.734375 -52.359375 47.734375 -51.9375 C 47.734375 -51.53125 47.421875 -51.21875 46.90625 -51.21875 C 43.734375 -51.21875 41.890625 -48.453125 41.171875 -46.09375 C 40.953125 -45.375 40.75 -44.859375 40.234375 -44.859375 Z M 31.71875 -11.09375 C 30.390625 -11.09375 29.5625 -11.703125 29.5625 -12.109375 C 29.5625 -12.53125 30.078125 -12.9375 30.90625 -12.9375 C 34.390625 -12.9375 36.34375 -14.890625 37.265625 -16.109375 C 37.875 -16.9375 38.1875 -17.546875 38.796875 -17.546875 C 39.3125 -17.546875 39.625 -17.25 39.625 -16.625 C 39.625 -14.375 36.03125 -11.09375 31.71875 -11.09375 Z M 31.71875 -11.09375 "/></g></g></g><g fill="#ffffff" fill-opacity="1"><g transform="translate(248.70532, 230.023365)"><g><path d="M 12.625 -58.828125 C 18.78125 -58.828125 23.40625 -63.640625 23.40625 -69.703125 C 23.40625 -75.859375 18.890625 -80.578125 12.625 -80.578125 C 6.5625 -80.578125 1.640625 -75.765625 1.640625 -69.703125 C 1.640625 -63.546875 6.875 -58.828125 12.625 -58.828125 Z M 5.34375 -67.65625 C 4.71875 -67.65625 4.421875 -68.78125 4.421875 -70.109375 C 4.421875 -74.21875 7.5 -77.703125 12.21875 -77.703125 C 12.734375 -77.703125 13.03125 -77.40625 13.03125 -77.09375 C 13.03125 -76.890625 12.828125 -76.578125 12.3125 -76.375 C 8.625 -75.046875 6.5625 -73.5 6.15625 -68.875 C 6.0625 -68.15625 5.84375 -67.65625 5.34375 -67.65625 Z M 12.625 0.609375 C 17.859375 0.609375 21.859375 -3.703125 21.859375 -8.625 L 21.859375 -45.984375 C 21.859375 -50.921875 18.171875 -55.234375 12.625 -55.234375 C 7.28125 -55.234375 3.28125 -50.921875 3.28125 -45.984375 L 3.28125 -8.625 C 3.28125 -3.703125 7.28125 0.609375 12.625 0.609375 Z M 6.359375 -44.859375 C 5.84375 -44.859375 5.546875 -45.375 5.546875 -45.984375 C 5.546875 -49.78125 9.140625 -52.5625 12.828125 -52.5625 C 13.453125 -52.5625 13.859375 -52.15625 13.859375 -51.734375 C 13.859375 -51.328125 13.546875 -51.015625 13.03125 -51.015625 C 9.859375 -50.71875 8 -48.453125 7.28125 -46.09375 C 7.078125 -45.375 6.875 -44.859375 6.359375 -44.859375 Z M 6.359375 -44.859375 "/></g></g></g><g fill="#ffffff" fill-opacity="1"><g transform="translate(273.748098, 230.023365)"><g><path d="M 8.109375 0 L 41.375 0 C 46.703125 0 51.125 -2.265625 51.125 -8.625 C 51.125 -14.890625 46.703125 -17.140625 41.375 -17.140625 L 27.3125 -17.140625 L 47.734375 -43.625 C 48.65625 -44.859375 49.78125 -46.90625 49.78125 -48.5625 C 49.78125 -52.453125 47.21875 -54.609375 41.671875 -54.609375 L 10.0625 -54.609375 C 4.71875 -54.609375 0.3125 -52.359375 0.3125 -45.984375 C 0.3125 -39.734375 4.71875 -37.46875 10.0625 -37.46875 L 21.140625 -37.46875 L 1.84375 -11.5 C 1.125 -10.46875 0 -8.21875 0 -6.265625 C 0 -2.5625 2.46875 0 8.109375 0 Z M 3.703125 -43.828125 C 2.984375 -43.828125 2.671875 -44.859375 2.671875 -46.5 C 2.671875 -49.78125 5.4375 -52.25 8.9375 -52.25 L 38.703125 -52.25 C 39.515625 -52.25 40.234375 -51.734375 40.234375 -51.21875 C 40.234375 -50.609375 39.515625 -50.09375 38.703125 -50.09375 L 9.546875 -50.09375 C 6.359375 -50.09375 4.71875 -48.65625 4.3125 -45.0625 C 4.203125 -44.453125 4.109375 -43.828125 3.703125 -43.828125 Z M 3.484375 -4.828125 C 2.875 -4.828125 2.5625 -5.640625 2.5625 -6.875 C 2.5625 -9.140625 4.828125 -11.8125 6.78125 -14.46875 L 22.796875 -35.9375 C 23.609375 -37.0625 24.328125 -37.46875 24.734375 -37.46875 C 25.15625 -37.46875 25.359375 -37.15625 25.359375 -36.75 C 25.359375 -36.234375 25.046875 -35.515625 24.53125 -34.796875 L 8.3125 -13.03125 C 6.5625 -10.671875 4.421875 -8 4.421875 -6.5625 C 4.421875 -5.140625 4.203125 -4.828125 3.484375 -4.828125 Z M 29.96875 -12.625 C 29.15625 -12.625 28.4375 -13.140625 28.4375 -13.75 C 28.4375 -14.375 29.15625 -14.78125 29.96875 -14.78125 L 42.703125 -14.78125 C 43.53125 -14.78125 44.25 -14.265625 44.25 -13.75 C 44.25 -13.140625 43.53125 -12.625 42.703125 -12.625 Z M 29.96875 -12.625 "/></g></g></g><g fill="#ffffff" fill-opacity="1"><g transform="translate(309.027132, 159.315824)"><g><path d="M 7.796875 -12.328125 C 11.21875 -12.328125 13.375 -15.15625 13.375 -18.40625 L 13.375 -38.828125 C 13.375 -41.953125 11.21875 -44.84375 7.796875 -44.84375 C 4.359375 -44.84375 2.265625 -41.953125 2.265625 -38.828125 L 2.265625 -18.40625 C 2.265625 -15.15625 4.359375 -12.328125 7.796875 -12.328125 Z M 4.234375 -36.875 C 3.859375 -36.875 3.6875 -37.546875 3.6875 -38.953125 C 3.6875 -41.84375 5.703125 -43.5 8.34375 -43.5 C 8.65625 -43.5 8.828125 -43.3125 8.828125 -43.125 C 8.828125 -43 8.703125 -42.8125 8.40625 -42.6875 C 6.203125 -41.890625 4.96875 -40.734375 4.71875 -37.609375 C 4.65625 -37.171875 4.546875 -36.875 4.234375 -36.875 Z M 7.796875 1.171875 C 11.109375 1.171875 13.921875 -1.59375 13.921875 -4.96875 C 13.921875 -8.09375 10.984375 -10.984375 7.796875 -10.984375 C 4.59375 -10.984375 1.71875 -8.09375 1.71875 -4.96875 C 1.71875 -1.59375 4.484375 1.171875 7.796875 1.171875 Z M 3.921875 -3.5 C 3.5625 -3.5 3.375 -4.171875 3.375 -4.96875 C 3.375 -7.421875 5.21875 -9.515625 8.03125 -9.515625 C 8.34375 -9.515625 8.53125 -9.328125 8.53125 -9.140625 C 8.53125 -9.015625 8.40625 -8.828125 8.09375 -8.703125 C 5.890625 -7.96875 4.65625 -7 4.421875 -4.234375 C 4.359375 -3.796875 4.234375 -3.5 3.921875 -3.5 Z M 3.921875 -3.5 "/></g></g></g><g fill="#ffffff" fill-opacity="0.4"><g transform="translate(222.052939, 121.328872)"><g><path d="M 19.9375 -16.421875 C 23.9375 -16.421875 27.28125 -18.875 27.28125 -23.03125 L 27.28125 -23.609375 C 36.109375 -25.890625 41.5 -31.375 41.5 -41 C 41.5 -52.609375 32.1875 -59.71875 20.171875 -59.71875 C 11.1875 -59.71875 0.578125 -53.828125 0.578125 -44.515625 C 0.578125 -40.765625 3.671875 -37.578125 7.265625 -37.578125 C 10.296875 -37.578125 12.25 -39.046875 14.296875 -41.171875 C 16.34375 -43.296875 17.71875 -44.109375 20.421875 -44.109375 C 23.03125 -44.109375 24.921875 -42.5625 24.921875 -39.859375 C 24.921875 -36.921875 23.125 -35.375 19.28125 -34.796875 C 14.125 -34.0625 12.5 -32.015625 12.5 -28.671875 L 12.5 -23.203125 C 12.5 -19.28125 15.515625 -16.421875 19.9375 -16.421875 Z M 2.9375 -43.375 C 2.453125 -43.375 2.28125 -43.78125 2.28125 -44.1875 C 2.28125 -52.359375 11.359375 -58.078125 20.421875 -58.078125 C 22.546875 -58.078125 23.28125 -57.828125 23.28125 -57.265625 C 23.28125 -56.609375 22.546875 -56.359375 20.578125 -56.359375 C 10.78125 -56.359375 4.25 -50.234375 3.59375 -44.4375 C 3.515625 -43.703125 3.4375 -43.375 2.9375 -43.375 Z M 15.109375 -27.609375 C 14.625 -27.609375 14.375 -28.015625 14.375 -28.75 C 14.375 -31.53125 15.4375 -32.515625 20.578125 -33.484375 C 23.203125 -33.984375 24.421875 -34.796875 25.15625 -35.53125 C 25.65625 -36.03125 25.984375 -36.59375 26.390625 -36.59375 C 26.875 -36.59375 27.125 -36.34375 27.125 -35.859375 C 27.125 -34.875 25.328125 -33.078125 21.484375 -32.1875 C 17.15625 -31.203125 16.015625 -31.046875 15.84375 -28.921875 C 15.765625 -27.859375 15.4375 -27.609375 15.109375 -27.609375 Z M 19.9375 1.546875 C 24.34375 1.546875 28.015625 -2.203125 28.015625 -6.609375 C 28.015625 -10.78125 24.34375 -14.625 19.9375 -14.625 C 15.4375 -14.625 11.765625 -10.78125 11.765625 -6.609375 C 11.765625 -2.203125 15.515625 1.546875 19.9375 1.546875 Z M 14.546875 -4.65625 C 14.046875 -4.65625 13.8125 -5.5625 13.8125 -6.609375 C 13.8125 -9.890625 16.25 -12.65625 20.015625 -12.65625 C 20.421875 -12.65625 20.671875 -12.421875 20.671875 -12.171875 C 20.671875 -12.015625 20.5 -11.765625 20.09375 -11.59375 C 17.15625 -10.453125 15.515625 -9.3125 15.1875 -5.640625 C 15.109375 -5.0625 14.953125 -4.65625 14.546875 -4.65625 Z M 14.546875 -4.65625 "/></g></g></g><g fill="#ffffff" fill-opacity="1"><g transform="translate(222.052939, 121.328872)"><g><path d="M 19.9375 -16.421875 C 23.9375 -16.421875 27.28125 -18.875 27.28125 -23.03125 L 27.28125 -23.609375 C 36.109375 -25.890625 41.5 -31.375 41.5 -41 C 41.5 -52.609375 32.1875 -59.71875 20.171875 -59.71875 C 11.1875 -59.71875 0.578125 -53.828125 0.578125 -44.515625 C 0.578125 -40.765625 3.671875 -37.578125 7.265625 -37.578125 C 10.296875 -37.578125 12.25 -39.046875 14.296875 -41.171875 C 16.34375 -43.296875 17.71875 -44.109375 20.421875 -44.109375 C 23.03125 -44.109375 24.921875 -42.5625 24.921875 -39.859375 C 24.921875 -36.921875 23.125 -35.375 19.28125 -34.796875 C 14.125 -34.0625 12.5 -32.015625 12.5 -28.671875 L 12.5 -23.203125 C 12.5 -19.28125 15.515625 -16.421875 19.9375 -16.421875 Z M 2.9375 -43.375 C 2.453125 -43.375 2.28125 -43.78125 2.28125 -44.1875 C 2.28125 -52.359375 11.359375 -58.078125 20.421875 -58.078125 C 22.546875 -58.078125 23.28125 -57.828125 23.28125 -57.265625 C 23.28125 -56.609375 22.546875 -56.359375 20.578125 -56.359375 C 10.78125 -56.359375 4.25 -50.234375 3.59375 -44.4375 C 3.515625 -43.703125 3.4375 -43.375 2.9375 -43.375 Z M 15.109375 -27.609375 C 14.625 -27.609375 14.375 -28.015625 14.375 -28.75 C 14.375 -31.53125 15.4375 -32.515625 20.578125 -33.484375 C 23.203125 -33.984375 24.421875 -34.796875 25.15625 -35.53125 C 25.65625 -36.03125 25.984375 -36.59375 26.390625 -36.59375 C 26.875 -36.59375 27.125 -36.34375 27.125 -35.859375 C 27.125 -34.875 25.328125 -33.078125 21.484375 -32.1875 C 17.15625 -31.203125 16.015625 -31.046875 15.84375 -28.921875 C 15.765625 -27.859375 15.4375 -27.609375 15.109375 -27.609375 Z M 19.9375 1.546875 C 24.34375 1.546875 28.015625 -2.203125 28.015625 -6.609375 C 28.015625 -10.78125 24.34375 -14.625 19.9375 -14.625 C 15.4375 -14.625 11.765625 -10.78125 11.765625 -6.609375 C 11.765625 -2.203125 15.515625 1.546875 19.9375 1.546875 Z M 14.546875 -4.65625 C 14.046875 -4.65625 13.8125 -5.5625 13.8125 -6.609375 C 13.8125 -9.890625 16.25 -12.65625 20.015625 -12.65625 C 20.421875 -12.65625 20.671875 -12.421875 20.671875 -12.171875 C 20.671875 -12.015625 20.5 -11.765625 20.09375 -11.59375 C 17.15625 -10.453125 15.515625 -9.3125 15.1875 -5.640625 C 15.109375 -5.0625 14.953125 -4.65625 14.546875 -4.65625 Z M 14.546875 -4.65625 "/></g></g></g></svg>