<svg xmlns="http://www.w3.org/2000/svg" xmlns:xlink="http://www.w3.org/1999/xlink" zoomAndPan="magnify" preserveAspectRatio="xMidYMid meet" version="1.0" viewBox="0 38.49 370.33 299.05"><defs><g/><clipPath id="3f31dbdcf5"><path d="M 0 313 L 26 313 L 26 337.546875 L 0 337.546875 Z M 0 313 " clip-rule="nonzero"/></clipPath><clipPath id="4853ee61e4"><path d="M 187.5 38.492188 L 299.253906 38.492188 L 299.253906 150.242188 L 187.5 150.242188 Z M 187.5 38.492188 " clip-rule="nonzero"/></clipPath><clipPath id="3ca0b0af14"><path d="M 243.375 38.492188 C 212.515625 38.492188 187.5 63.507812 187.5 94.367188 C 187.5 125.226562 212.515625 150.242188 243.375 150.242188 C 274.234375 150.242188 299.253906 125.226562 299.253906 94.367188 C 299.253906 63.507812 274.234375 38.492188 243.375 38.492188 Z M 243.375 38.492188 " clip-rule="nonzero"/></clipPath><clipPath id="9782ad600a"><path d="M 275.554688 96.113281 L 358.101562 96.113281 L 358.101562 178.660156 L 275.554688 178.660156 Z M 275.554688 96.113281 " clip-rule="nonzero"/></clipPath><clipPath id="3d8a45f697"><path d="M 316.828125 96.113281 C 294.035156 96.113281 275.554688 114.59375 275.554688 137.386719 C 275.554688 160.183594 294.035156 178.660156 316.828125 178.660156 C 339.625 178.660156 358.101562 160.183594 358.101562 137.386719 C 358.101562 114.59375 339.625 96.113281 316.828125 96.113281 Z M 316.828125 96.113281 " clip-rule="nonzero"/></clipPath><clipPath id="6c3c54d953"><path d="M 198.152344 49.144531 L 288.601562 49.144531 L 288.601562 139.589844 L 198.152344 139.589844 Z M 198.152344 49.144531 " clip-rule="nonzero"/></clipPath><clipPath id="e9fb425d23"><path d="M 243.375 49.144531 C 218.398438 49.144531 198.152344 69.390625 198.152344 94.367188 C 198.152344 119.34375 218.398438 139.589844 243.375 139.589844 C 268.351562 139.589844 288.601562 119.34375 288.601562 94.367188 C 288.601562 69.390625 268.351562 49.144531 243.375 49.144531 Z M 243.375 49.144531 " clip-rule="nonzero"/></clipPath><clipPath id="6d704c52b0"><path d="M 283.421875 103.980469 L 350.234375 103.980469 L 350.234375 170.792969 L 283.421875 170.792969 Z M 283.421875 103.980469 " clip-rule="nonzero"/></clipPath><clipPath id="3e35cbe187"><path d="M 316.828125 103.980469 C 298.378906 103.980469 283.421875 118.9375 283.421875 137.386719 C 283.421875 155.835938 298.378906 170.792969 316.828125 170.792969 C 335.277344 170.792969 350.234375 155.835938 350.234375 137.386719 C 350.234375 118.9375 335.277344 103.980469 316.828125 103.980469 Z M 316.828125 103.980469 " clip-rule="nonzero"/></clipPath></defs><path fill="#ffffff" d="M 71.160156 305.363281 C 71.160156 316.449219 63.363281 321.613281 53.753906 321.613281 C 44.144531 321.613281 36.351562 316.449219 36.351562 305.363281 C 36.351562 294.277344 44.144531 285.292969 53.753906 285.292969 C 63.363281 285.292969 71.160156 294.277344 71.160156 305.363281 Z M 71.160156 305.363281 " fill-opacity="1" fill-rule="nonzero"/><g clip-path="url(#3f31dbdcf5)"><path fill="#ffffff" d="M 25.003906 323.125 C 25.003906 330.355469 18.40625 337.503906 12.140625 337.503906 C 5.871094 337.503906 0.789062 334.136719 0.789062 326.910156 C 0.789062 319.683594 5.871094 313.820312 12.140625 313.820312 C 18.40625 313.820312 25.003906 315.894531 25.003906 323.125 Z M 25.003906 323.125 " fill-opacity="1" fill-rule="nonzero"/></g><path fill="#ffffff" d="M 300.664062 133.957031 C 294.261719 133.953125 287.980469 134.8125 281.816406 136.539062 C 279.050781 131.007812 275.367188 126.179688 270.765625 122.054688 C 269.683594 120.847656 268.546875 119.699219 267.351562 118.605469 C 266.160156 117.511719 264.914062 116.480469 263.613281 115.515625 C 262.316406 114.546875 260.972656 113.644531 259.585938 112.8125 C 258.195312 111.980469 256.769531 111.21875 255.304688 110.527344 C 253.839844 109.835938 252.347656 109.222656 250.820312 108.679688 C 249.292969 108.140625 247.746094 107.679688 246.171875 107.292969 C 244.597656 106.910156 243.011719 106.601562 241.410156 106.378906 C 239.804688 106.152344 238.195312 106.007812 236.578125 105.941406 C 234.960938 105.878906 233.34375 105.894531 231.726562 105.992188 C 230.109375 106.089844 228.503906 106.265625 226.90625 106.527344 C 225.308594 106.785156 223.726562 107.121094 222.160156 107.539062 C 220.597656 107.957031 219.058594 108.453125 217.542969 109.023438 C 216.027344 109.59375 214.546875 110.242188 213.09375 110.960938 C 211.644531 111.679688 210.234375 112.472656 208.863281 113.332031 C 207.492188 114.195312 206.167969 115.125 204.890625 116.117188 C 203.613281 117.113281 202.390625 118.167969 201.21875 119.285156 C 200.707031 117.898438 200.085938 116.566406 199.351562 115.289062 C 198.617188 114.007812 197.78125 112.800781 196.84375 111.664062 C 195.90625 110.523438 194.878906 109.472656 193.761719 108.507812 C 192.644531 107.542969 191.457031 106.679688 190.191406 105.917969 C 188.929688 105.15625 187.613281 104.503906 186.242188 103.960938 C 184.867188 103.421875 183.460938 103 182.015625 102.699219 C 180.574219 102.394531 179.113281 102.214844 177.640625 102.160156 C 176.164062 102.105469 174.699219 102.171875 173.234375 102.367188 C 171.773438 102.558594 170.335938 102.871094 168.925781 103.308594 C 167.519531 103.742188 166.15625 104.292969 164.839844 104.957031 C 163.523438 105.625 162.273438 106.394531 161.085938 107.273438 C 159.898438 108.152344 158.796875 109.121094 157.773438 110.183594 C 156.753906 111.25 155.828125 112.390625 155 113.609375 C 154.167969 114.832031 153.449219 116.113281 152.835938 117.453125 C 152.226562 118.796875 151.730469 120.179688 151.351562 121.605469 C 150.972656 123.03125 150.71875 124.480469 150.582031 125.949219 C 149.480469 125.222656 148.347656 124.542969 147.1875 123.90625 C 146.023438 123.273438 144.839844 122.6875 143.632812 122.152344 C 142.425781 121.613281 141.195312 121.128906 139.949219 120.691406 C 138.699219 120.257812 137.433594 119.871094 136.15625 119.539062 C 134.875 119.207031 133.585938 118.925781 132.28125 118.699219 C 130.980469 118.472656 129.667969 118.296875 128.351562 118.179688 C 127.035156 118.058594 125.714844 117.992188 124.394531 117.980469 C 123.070312 117.96875 121.75 118.011719 120.433594 118.109375 C 119.113281 118.203125 117.800781 118.355469 116.496094 118.558594 C 115.1875 118.761719 113.890625 119.019531 112.605469 119.328125 C 111.320312 119.636719 110.050781 120 108.792969 120.414062 C 107.539062 120.828125 106.300781 121.292969 105.082031 121.808594 C 103.867188 122.324219 102.671875 122.886719 101.5 123.5 C 100.328125 124.113281 99.183594 124.773438 98.066406 125.480469 C 96.949219 126.1875 95.859375 126.9375 94.804688 127.734375 C 93.75 128.527344 92.726562 129.367188 91.738281 130.246094 C 90.640625 129.882812 89.535156 129.546875 88.421875 129.242188 C 87.308594 128.9375 86.183594 128.660156 85.054688 128.414062 C 83.925781 128.167969 82.792969 127.953125 81.652344 127.765625 C 80.511719 127.578125 79.367188 127.421875 78.21875 127.296875 C 77.066406 127.171875 75.917969 127.074219 74.761719 127.007812 C 73.609375 126.941406 72.453125 126.90625 71.296875 126.902344 C 70.140625 126.898438 68.988281 126.921875 67.832031 126.980469 C 66.679688 127.035156 65.527344 127.121094 64.375 127.238281 C 63.226562 127.351562 62.082031 127.5 60.9375 127.675781 C 59.796875 127.855469 58.660156 128.058594 57.527344 128.296875 C 56.398438 128.535156 55.273438 128.800781 54.15625 129.09375 C 53.039062 129.390625 51.929688 129.714844 50.828125 130.070312 C 49.730469 130.425781 48.640625 130.804688 47.558594 131.21875 C 46.480469 131.628906 45.410156 132.070312 44.351562 132.535156 C 43.296875 133.003906 42.253906 133.5 41.222656 134.023438 C 40.191406 134.542969 39.175781 135.09375 38.171875 135.667969 C 37.171875 136.246094 36.183594 136.847656 35.214844 137.476562 C 34.242188 138.105469 33.289062 138.757812 32.355469 139.433594 C 31.417969 140.113281 30.5 140.816406 29.601562 141.542969 C 28.703125 142.269531 27.824219 143.015625 26.964844 143.789062 C 26.105469 144.5625 25.265625 145.359375 24.449219 146.175781 C 23.628906 146.992188 22.835938 147.828125 22.0625 148.6875 C 21.289062 149.546875 20.535156 150.425781 19.808594 151.324219 C 19.082031 152.21875 18.378906 153.136719 17.699219 154.074219 C 17.019531 155.007812 16.367188 155.960938 15.738281 156.929688 C 15.109375 157.898438 14.503906 158.882812 13.925781 159.886719 C 13.351562 160.886719 12.800781 161.902344 12.277344 162.933594 C 11.753906 163.964844 11.253906 165.007812 10.785156 166.0625 C 10.316406 167.121094 9.875 168.1875 9.464844 169.265625 C 9.050781 170.347656 8.667969 171.4375 8.3125 172.535156 C 7.957031 173.636719 7.628906 174.746094 7.332031 175.859375 C 7.035156 176.976562 6.769531 178.101562 6.53125 179.234375 C 6.292969 180.363281 6.085938 181.5 5.90625 182.644531 C 5.726562 183.785156 5.582031 184.929688 5.460938 186.082031 C 5.34375 187.230469 5.257812 188.382812 5.199219 189.535156 C 5.144531 190.691406 5.117188 191.847656 5.121094 193.003906 C 5.121094 194.15625 5.15625 195.3125 5.222656 196.464844 C 5.285156 197.621094 5.378906 198.773438 5.503906 199.921875 C 5.628906 201.070312 5.785156 202.214844 5.96875 203.355469 C 6.15625 204.496094 6.371094 205.632812 6.613281 206.761719 C 6.859375 207.890625 7.132812 209.011719 7.4375 210.128906 C 7.742188 211.242188 8.074219 212.351562 8.4375 213.449219 C 8.800781 214.546875 9.191406 215.632812 9.609375 216.710938 C 10.027344 217.785156 10.476562 218.851562 10.953125 219.90625 C 11.425781 220.960938 11.929688 222 12.460938 223.027344 C 12.988281 224.054688 13.546875 225.066406 14.128906 226.0625 C 14.714844 227.0625 15.324219 228.042969 15.957031 229.007812 C 16.59375 229.972656 17.253906 230.921875 17.9375 231.855469 C 18.621094 232.785156 19.332031 233.695312 20.066406 234.589844 C 20.796875 235.484375 21.554688 236.359375 22.332031 237.210938 C 23.113281 238.066406 23.914062 238.898438 24.734375 239.710938 C 25.558594 240.523438 26.402344 241.3125 27.265625 242.078125 C 28.128906 242.847656 29.015625 243.589844 29.917969 244.3125 C 30.820312 245.03125 31.742188 245.730469 32.683594 246.402344 C 33.621094 247.074219 34.578125 247.71875 35.554688 248.34375 C 36.527344 248.964844 37.519531 249.558594 38.523438 250.128906 C 39.527344 250.699219 40.546875 251.242188 41.582031 251.757812 C 42.617188 252.277344 43.664062 252.765625 44.722656 253.226562 C 45.785156 253.6875 46.855469 254.121094 47.9375 254.523438 C 49.019531 254.929688 50.113281 255.304688 51.214844 255.652344 C 52.316406 256 53.425781 256.316406 54.546875 256.605469 C 55.664062 256.894531 56.792969 257.15625 57.925781 257.382812 C 59.058594 257.613281 60.195312 257.8125 61.339844 257.984375 C 62.480469 258.152344 63.628906 258.292969 64.777344 258.402344 C 65.429688 260.191406 66.195312 261.929688 67.078125 263.617188 C 67.960938 265.304688 68.949219 266.925781 70.046875 268.484375 C 71.140625 270.039062 72.335938 271.519531 73.628906 272.917969 C 74.917969 274.316406 76.296875 275.625 77.761719 276.839844 C 79.226562 278.058594 80.765625 279.171875 82.375 280.183594 C 83.988281 281.199219 85.660156 282.101562 87.390625 282.894531 C 89.125 283.683594 90.898438 284.359375 92.71875 284.917969 C 94.539062 285.472656 96.390625 285.90625 98.269531 286.21875 C 100.144531 286.53125 102.035156 286.71875 103.941406 286.78125 C 105.84375 286.84375 107.742188 286.78125 109.636719 286.59375 C 111.53125 286.402344 113.40625 286.089844 115.257812 285.65625 C 117.109375 285.21875 118.925781 284.660156 120.707031 283.984375 C 122.488281 283.308594 124.214844 282.515625 125.890625 281.609375 C 127.5625 280.707031 129.171875 279.695312 130.710938 278.574219 C 132.253906 277.457031 133.714844 276.242188 135.09375 274.929688 C 136.476562 273.621094 137.761719 272.222656 138.960938 270.742188 C 139.441406 271.554688 139.945312 272.355469 140.46875 273.140625 C 140.996094 273.929688 141.542969 274.699219 142.109375 275.457031 C 142.675781 276.214844 143.265625 276.953125 143.875 277.675781 C 144.484375 278.402344 145.113281 279.109375 145.757812 279.796875 C 146.40625 280.488281 147.074219 281.15625 147.757812 281.808594 C 148.441406 282.460938 149.144531 283.097656 149.863281 283.710938 C 150.582031 284.324219 151.320312 284.917969 152.070312 285.492188 C 152.824219 286.0625 153.589844 286.617188 154.375 287.148438 C 155.15625 287.679688 155.953125 288.1875 156.765625 288.675781 C 157.574219 289.160156 158.398438 289.625 159.234375 290.066406 C 160.070312 290.507812 160.917969 290.929688 161.777344 291.324219 C 162.636719 291.71875 163.507812 292.089844 164.386719 292.4375 C 165.265625 292.785156 166.15625 293.105469 167.054688 293.402344 C 167.949219 293.703125 168.855469 293.976562 169.769531 294.222656 C 170.679688 294.472656 171.601562 294.695312 172.527344 294.890625 C 173.449219 295.089844 174.378906 295.261719 175.316406 295.40625 C 176.25 295.554688 177.1875 295.675781 178.128906 295.769531 C 179.070312 295.863281 180.011719 295.933594 180.957031 295.976562 C 181.902344 296.019531 182.847656 296.035156 183.792969 296.027344 C 184.738281 296.015625 185.683594 295.980469 186.628906 295.917969 C 187.570312 295.859375 188.511719 295.769531 189.453125 295.65625 C 190.390625 295.542969 191.324219 295.40625 192.257812 295.238281 C 193.1875 295.074219 194.113281 294.882812 195.035156 294.667969 C 195.957031 294.453125 196.871094 294.210938 197.777344 293.945312 C 198.683594 293.679688 199.585938 293.386719 200.476562 293.070312 C 201.367188 292.753906 202.25 292.414062 203.121094 292.050781 C 203.996094 291.6875 204.859375 291.296875 205.710938 290.886719 C 206.5625 290.472656 207.398438 290.039062 208.226562 289.582031 C 209.054688 289.121094 209.867188 288.640625 210.667969 288.136719 C 211.472656 287.636719 212.257812 287.109375 213.027344 286.5625 C 213.800781 286.015625 214.558594 285.449219 215.296875 284.863281 C 216.039062 284.273438 216.761719 283.664062 217.46875 283.039062 C 218.824219 284.046875 220.222656 284.988281 221.671875 285.859375 C 223.117188 286.730469 224.601562 287.527344 226.128906 288.253906 C 227.652344 288.976562 229.207031 289.625 230.796875 290.199219 C 232.386719 290.769531 234 291.261719 235.636719 291.675781 C 237.273438 292.089844 238.925781 292.421875 240.597656 292.671875 C 242.265625 292.921875 243.945312 293.09375 245.628906 293.179688 C 247.316406 293.265625 249.003906 293.265625 250.6875 293.1875 C 252.375 293.105469 254.054688 292.945312 255.726562 292.699219 C 257.394531 292.453125 259.050781 292.128906 260.6875 291.71875 C 262.328125 291.3125 263.941406 290.824219 265.53125 290.257812 C 267.121094 289.691406 268.683594 289.046875 270.210938 288.328125 C 271.738281 287.609375 273.226562 286.816406 274.675781 285.949219 C 276.125 285.082031 277.527344 284.148438 278.882812 283.144531 C 280.242188 282.140625 281.546875 281.070312 282.796875 279.9375 C 284.050781 278.804688 285.246094 277.613281 286.378906 276.363281 C 287.515625 275.113281 288.585938 273.8125 289.59375 272.457031 C 290.777344 272.644531 291.964844 272.804688 293.15625 272.933594 C 294.34375 273.0625 295.539062 273.160156 296.734375 273.226562 C 297.933594 273.292969 299.128906 273.332031 300.328125 273.335938 C 301.527344 273.339844 302.722656 273.316406 303.917969 273.257812 C 305.117188 273.203125 306.3125 273.117188 307.503906 272.996094 C 308.695312 272.878906 309.882812 272.730469 311.070312 272.550781 C 312.253906 272.371094 313.433594 272.164062 314.605469 271.921875 C 315.78125 271.683594 316.949219 271.410156 318.105469 271.113281 C 319.265625 270.8125 320.417969 270.480469 321.5625 270.121094 C 322.703125 269.761719 323.835938 269.371094 324.960938 268.953125 C 326.082031 268.535156 327.195312 268.089844 328.292969 267.613281 C 329.394531 267.136719 330.480469 266.632812 331.554688 266.101562 C 332.628906 265.570312 333.6875 265.011719 334.730469 264.425781 C 335.777344 263.839844 336.804688 263.226562 337.820312 262.589844 C 338.832031 261.949219 339.828125 261.285156 340.808594 260.59375 C 341.789062 259.902344 342.75 259.1875 343.691406 258.445312 C 344.632812 257.707031 345.554688 256.941406 346.457031 256.15625 C 347.359375 255.367188 348.242188 254.554688 349.101562 253.722656 C 349.964844 252.890625 350.804688 252.035156 351.621094 251.15625 C 352.4375 250.28125 353.230469 249.382812 354 248.46875 C 354.773438 247.550781 355.519531 246.613281 356.242188 245.65625 C 356.960938 244.699219 357.660156 243.726562 358.332031 242.734375 C 359.003906 241.742188 359.648438 240.734375 360.269531 239.707031 C 360.890625 238.683594 361.484375 237.644531 362.050781 236.585938 C 362.617188 235.53125 363.15625 234.460938 363.664062 233.378906 C 364.175781 232.292969 364.660156 231.199219 365.113281 230.089844 C 365.570312 228.980469 365.996094 227.859375 366.390625 226.730469 C 366.789062 225.601562 367.15625 224.460938 367.492188 223.308594 C 367.832031 222.160156 368.140625 221.003906 368.417969 219.839844 C 368.695312 218.671875 368.945312 217.5 369.164062 216.324219 C 369.382812 215.144531 369.570312 213.960938 369.726562 212.773438 C 369.882812 211.585938 370.007812 210.394531 370.105469 209.199219 C 370.199219 208.003906 370.265625 206.808594 370.296875 205.613281 C 370.332031 204.414062 370.335938 203.214844 370.304688 202.019531 C 370.277344 200.820312 370.21875 199.625 370.128906 198.429688 C 370.039062 197.234375 369.921875 196.042969 369.769531 194.855469 C 369.617188 193.664062 369.4375 192.480469 369.222656 191.300781 C 369.011719 190.125 368.769531 188.949219 368.496094 187.785156 C 368.222656 186.617188 367.921875 185.457031 367.589844 184.304688 C 367.257812 183.15625 366.894531 182.011719 366.503906 180.882812 C 366.109375 179.75 365.691406 178.628906 365.242188 177.515625 C 364.792969 176.40625 364.316406 175.308594 363.808594 174.222656 C 363.304688 173.132812 362.769531 172.0625 362.207031 171.003906 C 361.648438 169.945312 361.058594 168.902344 360.445312 167.875 C 359.828125 166.84375 359.1875 165.832031 358.519531 164.839844 C 357.851562 163.84375 357.160156 162.867188 356.445312 161.90625 C 355.726562 160.945312 354.984375 160.007812 354.21875 159.085938 C 353.453125 158.164062 352.664062 157.261719 351.851562 156.382812 C 351.035156 155.5 350.203125 154.644531 349.34375 153.804688 C 348.488281 152.96875 347.609375 152.152344 346.710938 151.359375 C 345.8125 150.570312 344.894531 149.800781 343.957031 149.054688 C 343.015625 148.308594 342.058594 147.589844 341.085938 146.894531 C 340.109375 146.199219 339.117188 145.53125 338.105469 144.886719 C 337.09375 144.242188 336.070312 143.625 335.027344 143.03125 C 333.984375 142.441406 332.929688 141.875 331.855469 141.339844 C 330.785156 140.804688 329.699219 140.292969 328.605469 139.8125 C 327.507812 139.332031 326.398438 138.878906 325.277344 138.457031 C 324.15625 138.035156 323.023438 137.640625 321.882812 137.273438 C 320.742188 136.910156 319.59375 136.574219 318.433594 136.265625 C 317.277344 135.960938 316.109375 135.683594 314.9375 135.4375 C 313.765625 135.191406 312.585938 134.976562 311.402344 134.792969 C 310.21875 134.605469 309.03125 134.453125 307.839844 134.328125 C 306.648438 134.207031 305.453125 134.113281 304.257812 134.050781 C 303.0625 133.988281 301.863281 133.957031 300.664062 133.957031 Z M 300.664062 133.957031 " fill-opacity="1" fill-rule="nonzero"/><g clip-path="url(#4853ee61e4)"><g clip-path="url(#3ca0b0af14)"><path fill="#5635d7" d="M 187.5 38.492188 L 299.253906 38.492188 L 299.253906 150.242188 L 187.5 150.242188 Z M 187.5 38.492188 " fill-opacity="1" fill-rule="nonzero"/></g></g><g clip-path="url(#9782ad600a)"><g clip-path="url(#3d8a45f697)"><path fill="#5635d7" d="M 275.554688 96.113281 L 358.101562 96.113281 L 358.101562 178.660156 L 275.554688 178.660156 Z M 275.554688 96.113281 " fill-opacity="1" fill-rule="nonzero"/></g></g><g clip-path="url(#6c3c54d953)"><g clip-path="url(#e9fb425d23)"><path fill="#ffffff" d="M 198.152344 49.144531 L 288.601562 49.144531 L 288.601562 139.589844 L 198.152344 139.589844 Z M 198.152344 49.144531 " fill-opacity="1" fill-rule="nonzero"/></g></g><g clip-path="url(#6d704c52b0)"><g clip-path="url(#3e35cbe187)"><path fill="#ffffff" d="M 283.421875 103.980469 L 350.234375 103.980469 L 350.234375 170.792969 L 283.421875 170.792969 Z M 283.421875 103.980469 " fill-opacity="1" fill-rule="nonzero"/></g></g><g fill="#5635d7" fill-opacity="1"><g transform="translate(50.107845, 230.023365)"><g><path d="M 39.421875 1.953125 C 62.3125 1.953125 76.78125 -13.140625 76.78125 -36.546875 C 76.78125 -60.671875 61.59375 -75.046875 39.421875 -75.046875 C 16.828125 -75.046875 1.953125 -60.359375 1.953125 -36.640625 C 1.953125 -12.734375 17.046875 1.953125 39.421875 1.953125 Z M 5.546875 -36.75 C 4.921875 -36.75 4.71875 -37.265625 4.71875 -38.390625 C 4.71875 -56.25 17.25 -72.265625 38.59375 -72.265625 C 41.46875 -72.265625 42.5 -71.75 42.5 -70.828125 C 42.5 -70.109375 41.265625 -69.59375 38.1875 -69.59375 C 17.25 -69.59375 7.390625 -52.96875 6.359375 -38.078125 C 6.265625 -37.15625 6.15625 -36.75 5.546875 -36.75 Z M 39.3125 -16.015625 C 29.671875 -16.015625 22.796875 -23.71875 22.796875 -36.546875 C 22.796875 -48.765625 29.15625 -57.078125 39.3125 -57.078125 C 50.296875 -57.078125 55.953125 -48.140625 55.953125 -36.03125 C 55.953125 -24.125 49.78125 -16.015625 39.3125 -16.015625 Z M 42.390625 -11.90625 C 41.265625 -11.90625 40.953125 -12.3125 40.953125 -12.828125 C 40.953125 -13.453125 41.265625 -13.65625 42.1875 -13.75 C 45.578125 -14.171875 49.171875 -15.5 52.453125 -18.578125 C 55.03125 -21.046875 56.875 -24.84375 57.6875 -27.515625 C 58 -28.53125 58.40625 -28.953125 58.828125 -28.953125 C 59.4375 -28.953125 60.15625 -28.53125 60.15625 -27.8125 C 60.15625 -27 59.84375 -26.171875 59.546875 -25.359375 C 57.078125 -18.6875 51.84375 -14.0625 43.53125 -12.015625 C 43.109375 -11.90625 42.703125 -11.90625 42.390625 -11.90625 Z M 42.390625 -11.90625 "/></g></g></g><g fill="#5635d7" fill-opacity="1"><g transform="translate(128.828398, 230.023365)"><g><path d="M 48.34375 23 C 53.59375 23 57.59375 18.375 57.59375 13.75 L 57.59375 -45.984375 C 57.59375 -50.71875 53.59375 -55.234375 48.34375 -55.234375 C 43.53125 -55.234375 41.265625 -52.453125 40.03125 -50.5 L 39.9375 -50.296875 L 39.734375 -50.296875 C 37.15625 -54.3125 32.234375 -56.5625 25.875 -56.5625 C 12.015625 -56.5625 1.328125 -43.109375 1.328125 -27.3125 C 1.328125 -11.09375 12.421875 1.953125 25.96875 1.953125 C 31.109375 1.953125 35.421875 0.828125 38.796875 -1.328125 L 39.015625 -1.328125 L 39.015625 13.75 C 39.015625 18.375 43.015625 23 48.34375 23 Z M 4.625 -25.96875 C 4 -25.96875 3.796875 -26.484375 3.796875 -27.609375 C 3.796875 -41.375 12.53125 -54.09375 26.078125 -54.09375 C 27.921875 -54.09375 28.328125 -53.796875 28.328125 -53.171875 C 28.328125 -52.453125 27.921875 -52.046875 26.6875 -51.9375 C 12.828125 -51.21875 6.78125 -39.3125 5.4375 -27.3125 C 5.34375 -26.375 5.234375 -25.96875 4.625 -25.96875 Z M 41.984375 -45.78125 C 41.46875 -45.78125 41.171875 -46.296875 41.171875 -46.90625 C 41.171875 -50.296875 44.765625 -53.484375 47.84375 -53.484375 C 48.859375 -53.484375 49.375 -52.96875 49.375 -52.5625 C 49.375 -52.25 49.171875 -51.9375 48.65625 -51.9375 C 45.484375 -51.640625 43.53125 -49.375 42.90625 -47.015625 C 42.703125 -46.296875 42.5 -45.78125 41.984375 -45.78125 Z M 29.359375 -16.21875 C 23.71875 -16.21875 19.703125 -20.84375 19.703125 -27.3125 C 19.703125 -33.875 23.609375 -38.390625 29.25 -38.390625 C 35.109375 -38.390625 38.90625 -33.78125 38.90625 -27.3125 C 38.90625 -20.84375 35 -16.21875 29.359375 -16.21875 Z M 31.828125 -13.03125 C 31.3125 -13.03125 31 -13.34375 31 -13.75 C 31 -13.96875 31.203125 -14.265625 31.71875 -14.375 C 35.3125 -15.09375 38.390625 -17.765625 39.421875 -20.015625 C 39.828125 -20.9375 40.140625 -21.453125 40.75 -21.453125 C 41.265625 -21.453125 41.578125 -21.140625 41.578125 -20.53125 C 41.578125 -17.453125 36.953125 -13.25 31.828125 -13.03125 Z M 31.828125 -13.03125 "/></g></g></g><g fill="#5635d7" fill-opacity="1"><g transform="translate(189.587936, 230.023365)"><g><path d="M 29.5625 1.953125 C 45.78125 1.953125 55.640625 -6.78125 55.640625 -19.703125 L 55.640625 -45.984375 C 55.640625 -50.71875 51.640625 -55.234375 46.296875 -55.234375 C 41.0625 -55.234375 36.953125 -50.71875 36.953125 -45.984375 L 36.953125 -22.375 C 36.953125 -18.375 33.359375 -15.40625 29.5625 -15.40625 C 25.671875 -15.40625 22.078125 -18.484375 22.078125 -22.375 L 22.078125 -45.984375 C 22.078125 -50.921875 18.0625 -55.234375 12.828125 -55.234375 C 7.5 -55.234375 3.484375 -50.921875 3.484375 -45.984375 L 3.484375 -19.8125 C 3.484375 -5.953125 13.75 1.953125 29.5625 1.953125 Z M 6.671875 -44.96875 C 6.15625 -44.96875 5.84375 -45.484375 5.84375 -46.09375 C 5.84375 -49.890625 9.4375 -52.875 13.140625 -52.875 C 13.75 -52.875 14.171875 -52.453125 14.171875 -52.046875 C 14.171875 -51.640625 13.859375 -51.328125 13.34375 -51.328125 C 10.15625 -51.328125 8.3125 -48.5625 7.59375 -46.203125 C 7.390625 -45.484375 7.1875 -44.96875 6.671875 -44.96875 Z M 40.234375 -44.859375 C 39.734375 -44.859375 39.421875 -45.375 39.421875 -45.984375 C 39.421875 -49.78125 43.015625 -52.765625 46.703125 -52.765625 C 47.328125 -52.765625 47.734375 -52.359375 47.734375 -51.9375 C 47.734375 -51.53125 47.421875 -51.21875 46.90625 -51.21875 C 43.734375 -51.21875 41.890625 -48.453125 41.171875 -46.09375 C 40.953125 -45.375 40.75 -44.859375 40.234375 -44.859375 Z M 31.71875 -11.09375 C 30.390625 -11.09375 29.5625 -11.703125 29.5625 -12.109375 C 29.5625 -12.53125 30.078125 -12.9375 30.90625 -12.9375 C 34.390625 -12.9375 36.34375 -14.890625 37.265625 -16.109375 C 37.875 -16.9375 38.1875 -17.546875 38.796875 -17.546875 C 39.3125 -17.546875 39.625 -17.25 39.625 -16.625 C 39.625 -14.375 36.03125 -11.09375 31.71875 -11.09375 Z M 31.71875 -11.09375 "/></g></g></g><g fill="#5635d7" fill-opacity="1"><g transform="translate(248.70532, 230.023365)"><g><path d="M 12.625 -58.828125 C 18.78125 -58.828125 23.40625 -63.640625 23.40625 -69.703125 C 23.40625 -75.859375 18.890625 -80.578125 12.625 -80.578125 C 6.5625 -80.578125 1.640625 -75.765625 1.640625 -69.703125 C 1.640625 -63.546875 6.875 -58.828125 12.625 -58.828125 Z M 5.34375 -67.65625 C 4.71875 -67.65625 4.421875 -68.78125 4.421875 -70.109375 C 4.421875 -74.21875 7.5 -77.703125 12.21875 -77.703125 C 12.734375 -77.703125 13.03125 -77.40625 13.03125 -77.09375 C 13.03125 -76.890625 12.828125 -76.578125 12.3125 -76.375 C 8.625 -75.046875 6.5625 -73.5 6.15625 -68.875 C 6.0625 -68.15625 5.84375 -67.65625 5.34375 -67.65625 Z M 12.625 0.609375 C 17.859375 0.609375 21.859375 -3.703125 21.859375 -8.625 L 21.859375 -45.984375 C 21.859375 -50.921875 18.171875 -55.234375 12.625 -55.234375 C 7.28125 -55.234375 3.28125 -50.921875 3.28125 -45.984375 L 3.28125 -8.625 C 3.28125 -3.703125 7.28125 0.609375 12.625 0.609375 Z M 6.359375 -44.859375 C 5.84375 -44.859375 5.546875 -45.375 5.546875 -45.984375 C 5.546875 -49.78125 9.140625 -52.5625 12.828125 -52.5625 C 13.453125 -52.5625 13.859375 -52.15625 13.859375 -51.734375 C 13.859375 -51.328125 13.546875 -51.015625 13.03125 -51.015625 C 9.859375 -50.71875 8 -48.453125 7.28125 -46.09375 C 7.078125 -45.375 6.875 -44.859375 6.359375 -44.859375 Z M 6.359375 -44.859375 "/></g></g></g><g fill="#5635d7" fill-opacity="1"><g transform="translate(273.748098, 230.023365)"><g><path d="M 8.109375 0 L 41.375 0 C 46.703125 0 51.125 -2.265625 51.125 -8.625 C 51.125 -14.890625 46.703125 -17.140625 41.375 -17.140625 L 27.3125 -17.140625 L 47.734375 -43.625 C 48.65625 -44.859375 49.78125 -46.90625 49.78125 -48.5625 C 49.78125 -52.453125 47.21875 -54.609375 41.671875 -54.609375 L 10.0625 -54.609375 C 4.71875 -54.609375 0.3125 -52.359375 0.3125 -45.984375 C 0.3125 -39.734375 4.71875 -37.46875 10.0625 -37.46875 L 21.140625 -37.46875 L 1.84375 -11.5 C 1.125 -10.46875 0 -8.21875 0 -6.265625 C 0 -2.5625 2.46875 0 8.109375 0 Z M 3.703125 -43.828125 C 2.984375 -43.828125 2.671875 -44.859375 2.671875 -46.5 C 2.671875 -49.78125 5.4375 -52.25 8.9375 -52.25 L 38.703125 -52.25 C 39.515625 -52.25 40.234375 -51.734375 40.234375 -51.21875 C 40.234375 -50.609375 39.515625 -50.09375 38.703125 -50.09375 L 9.546875 -50.09375 C 6.359375 -50.09375 4.71875 -48.65625 4.3125 -45.0625 C 4.203125 -44.453125 4.109375 -43.828125 3.703125 -43.828125 Z M 3.484375 -4.828125 C 2.875 -4.828125 2.5625 -5.640625 2.5625 -6.875 C 2.5625 -9.140625 4.828125 -11.8125 6.78125 -14.46875 L 22.796875 -35.9375 C 23.609375 -37.0625 24.328125 -37.46875 24.734375 -37.46875 C 25.15625 -37.46875 25.359375 -37.15625 25.359375 -36.75 C 25.359375 -36.234375 25.046875 -35.515625 24.53125 -34.796875 L 8.3125 -13.03125 C 6.5625 -10.671875 4.421875 -8 4.421875 -6.5625 C 4.421875 -5.140625 4.203125 -4.828125 3.484375 -4.828125 Z M 29.96875 -12.625 C 29.15625 -12.625 28.4375 -13.140625 28.4375 -13.75 C 28.4375 -14.375 29.15625 -14.78125 29.96875 -14.78125 L 42.703125 -14.78125 C 43.53125 -14.78125 44.25 -14.265625 44.25 -13.75 C 44.25 -13.140625 43.53125 -12.625 42.703125 -12.625 Z M 29.96875 -12.625 "/></g></g></g><g fill="#e83b80" fill-opacity="1"><g transform="translate(309.027132, 159.31581)"><g><path d="M 7.796875 -12.328125 C 11.21875 -12.328125 13.375 -15.15625 13.375 -18.40625 L 13.375 -38.828125 C 13.375 -41.953125 11.21875 -44.84375 7.796875 -44.84375 C 4.359375 -44.84375 2.265625 -41.953125 2.265625 -38.828125 L 2.265625 -18.40625 C 2.265625 -15.15625 4.359375 -12.328125 7.796875 -12.328125 Z M 4.234375 -36.875 C 3.859375 -36.875 3.6875 -37.546875 3.6875 -38.953125 C 3.6875 -41.84375 5.703125 -43.5 8.34375 -43.5 C 8.65625 -43.5 8.828125 -43.3125 8.828125 -43.125 C 8.828125 -43 8.703125 -42.8125 8.40625 -42.6875 C 6.203125 -41.890625 4.96875 -40.734375 4.71875 -37.609375 C 4.65625 -37.171875 4.546875 -36.875 4.234375 -36.875 Z M 7.796875 1.171875 C 11.109375 1.171875 13.921875 -1.59375 13.921875 -4.96875 C 13.921875 -8.09375 10.984375 -10.984375 7.796875 -10.984375 C 4.59375 -10.984375 1.71875 -8.09375 1.71875 -4.96875 C 1.71875 -1.59375 4.484375 1.171875 7.796875 1.171875 Z M 3.921875 -3.5 C 3.5625 -3.5 3.375 -4.171875 3.375 -4.96875 C 3.375 -7.421875 5.21875 -9.515625 8.03125 -9.515625 C 8.34375 -9.515625 8.53125 -9.328125 8.53125 -9.140625 C 8.53125 -9.015625 8.40625 -8.828125 8.09375 -8.703125 C 5.890625 -7.96875 4.65625 -7 4.421875 -4.234375 C 4.359375 -3.796875 4.234375 -3.5 3.921875 -3.5 Z M 3.921875 -3.5 "/></g></g></g><g fill="#ffffff" fill-opacity="0.4"><g transform="translate(222.052939, 121.32888)"><g><path d="M 19.9375 -16.421875 C 23.9375 -16.421875 27.28125 -18.875 27.28125 -23.03125 L 27.28125 -23.609375 C 36.109375 -25.890625 41.5 -31.375 41.5 -41 C 41.5 -52.609375 32.1875 -59.71875 20.171875 -59.71875 C 11.1875 -59.71875 0.578125 -53.828125 0.578125 -44.515625 C 0.578125 -40.765625 3.671875 -37.578125 7.265625 -37.578125 C 10.296875 -37.578125 12.25 -39.046875 14.296875 -41.171875 C 16.34375 -43.296875 17.71875 -44.109375 20.421875 -44.109375 C 23.03125 -44.109375 24.921875 -42.5625 24.921875 -39.859375 C 24.921875 -36.921875 23.125 -35.375 19.28125 -34.796875 C 14.125 -34.0625 12.5 -32.015625 12.5 -28.671875 L 12.5 -23.203125 C 12.5 -19.28125 15.515625 -16.421875 19.9375 -16.421875 Z M 2.9375 -43.375 C 2.453125 -43.375 2.28125 -43.78125 2.28125 -44.1875 C 2.28125 -52.359375 11.359375 -58.078125 20.421875 -58.078125 C 22.546875 -58.078125 23.28125 -57.828125 23.28125 -57.265625 C 23.28125 -56.609375 22.546875 -56.359375 20.578125 -56.359375 C 10.78125 -56.359375 4.25 -50.234375 3.59375 -44.4375 C 3.515625 -43.703125 3.4375 -43.375 2.9375 -43.375 Z M 15.109375 -27.609375 C 14.625 -27.609375 14.375 -28.015625 14.375 -28.75 C 14.375 -31.53125 15.4375 -32.515625 20.578125 -33.484375 C 23.203125 -33.984375 24.421875 -34.796875 25.15625 -35.53125 C 25.65625 -36.03125 25.984375 -36.59375 26.390625 -36.59375 C 26.875 -36.59375 27.125 -36.34375 27.125 -35.859375 C 27.125 -34.875 25.328125 -33.078125 21.484375 -32.1875 C 17.15625 -31.203125 16.015625 -31.046875 15.84375 -28.921875 C 15.765625 -27.859375 15.4375 -27.609375 15.109375 -27.609375 Z M 19.9375 1.546875 C 24.34375 1.546875 28.015625 -2.203125 28.015625 -6.609375 C 28.015625 -10.78125 24.34375 -14.625 19.9375 -14.625 C 15.4375 -14.625 11.765625 -10.78125 11.765625 -6.609375 C 11.765625 -2.203125 15.515625 1.546875 19.9375 1.546875 Z M 14.546875 -4.65625 C 14.046875 -4.65625 13.8125 -5.5625 13.8125 -6.609375 C 13.8125 -9.890625 16.25 -12.65625 20.015625 -12.65625 C 20.421875 -12.65625 20.671875 -12.421875 20.671875 -12.171875 C 20.671875 -12.015625 20.5 -11.765625 20.09375 -11.59375 C 17.15625 -10.453125 15.515625 -9.3125 15.1875 -5.640625 C 15.109375 -5.0625 14.953125 -4.65625 14.546875 -4.65625 Z M 14.546875 -4.65625 "/></g></g></g><g fill="#fab818" fill-opacity="1"><g transform="translate(222.052939, 121.32888)"><g><path d="M 19.9375 -16.421875 C 23.9375 -16.421875 27.28125 -18.875 27.28125 -23.03125 L 27.28125 -23.609375 C 36.109375 -25.890625 41.5 -31.375 41.5 -41 C 41.5 -52.609375 32.1875 -59.71875 20.171875 -59.71875 C 11.1875 -59.71875 0.578125 -53.828125 0.578125 -44.515625 C 0.578125 -40.765625 3.671875 -37.578125 7.265625 -37.578125 C 10.296875 -37.578125 12.25 -39.046875 14.296875 -41.171875 C 16.34375 -43.296875 17.71875 -44.109375 20.421875 -44.109375 C 23.03125 -44.109375 24.921875 -42.5625 24.921875 -39.859375 C 24.921875 -36.921875 23.125 -35.375 19.28125 -34.796875 C 14.125 -34.0625 12.5 -32.015625 12.5 -28.671875 L 12.5 -23.203125 C 12.5 -19.28125 15.515625 -16.421875 19.9375 -16.421875 Z M 2.9375 -43.375 C 2.453125 -43.375 2.28125 -43.78125 2.28125 -44.1875 C 2.28125 -52.359375 11.359375 -58.078125 20.421875 -58.078125 C 22.546875 -58.078125 23.28125 -57.828125 23.28125 -57.265625 C 23.28125 -56.609375 22.546875 -56.359375 20.578125 -56.359375 C 10.78125 -56.359375 4.25 -50.234375 3.59375 -44.4375 C 3.515625 -43.703125 3.4375 -43.375 2.9375 -43.375 Z M 15.109375 -27.609375 C 14.625 -27.609375 14.375 -28.015625 14.375 -28.75 C 14.375 -31.53125 15.4375 -32.515625 20.578125 -33.484375 C 23.203125 -33.984375 24.421875 -34.796875 25.15625 -35.53125 C 25.65625 -36.03125 25.984375 -36.59375 26.390625 -36.59375 C 26.875 -36.59375 27.125 -36.34375 27.125 -35.859375 C 27.125 -34.875 25.328125 -33.078125 21.484375 -32.1875 C 17.15625 -31.203125 16.015625 -31.046875 15.84375 -28.921875 C 15.765625 -27.859375 15.4375 -27.609375 15.109375 -27.609375 Z M 19.9375 1.546875 C 24.34375 1.546875 28.015625 -2.203125 28.015625 -6.609375 C 28.015625 -10.78125 24.34375 -14.625 19.9375 -14.625 C 15.4375 -14.625 11.765625 -10.78125 11.765625 -6.609375 C 11.765625 -2.203125 15.515625 1.546875 19.9375 1.546875 Z M 14.546875 -4.65625 C 14.046875 -4.65625 13.8125 -5.5625 13.8125 -6.609375 C 13.8125 -9.890625 16.25 -12.65625 20.015625 -12.65625 C 20.421875 -12.65625 20.671875 -12.421875 20.671875 -12.171875 C 20.671875 -12.015625 20.5 -11.765625 20.09375 -11.59375 C 17.15625 -10.453125 15.515625 -9.3125 15.1875 -5.640625 C 15.109375 -5.0625 14.953125 -4.65625 14.546875 -4.65625 Z M 14.546875 -4.65625 "/></g></g></g></svg>